<svg version="1.2" baseProfile="tiny-ps" xmlns="http://www.w3.org/2000/svg" viewBox="0 0 58 77" width="58" height="77">
	<title>Password</title>
	<style>
		tspan { white-space:pre }
		.shp0 { paint-order:stroke fill markers;stroke-width: 4 } 
	</style>
	<g id="Password">
		<path id="Forma 1" class="shp0" d="M56.04 34.06L56.04 74.95L1.99 74.95L1.99 34.06L6.77 34.06L6.77 24.08C6.77 11.89 16.75 1.98 29.02 1.98C41.28 1.98 51.27 11.89 51.27 24.08L51.27 34.06L56.04 34.06ZM15.15 24.08C15.15 16.49 21.37 10.32 29.02 10.32C36.65 10.32 42.87 16.49 42.87 24.08L42.87 34.06L15.15 34.06L15.15 24.08ZM32.84 63.74L25.2 63.74L26.35 52.53C24.94 51.66 23.98 50.1 23.98 48.31C23.98 45.56 26.23 43.32 29.02 43.32C31.79 43.32 34.03 45.56 34.03 48.31C34.03 50.1 33.1 51.66 31.67 52.53L32.84 63.74Z" />
	</g>
</svg>