<svg version="1.2" baseProfile="tiny-ps" xmlns="http://www.w3.org/2000/svg" viewBox="0 0 109 89" width="109" height="89">
	<title>Social Icon</title>
	<style>
		tspan { white-space:pre }
		.shp0 { fill: #ffffff } 
	</style>
	<g id="Social Icon">
		<path id="Shape 6" class="shp0" d="M14.49 33.86C14.47 33.76 7.29 28.67 5.51 20.25C4.01 13.19 7.65 3.63 8.31 4.46C26.67 27.3 53.85 27.73 53.81 27.41C53.66 26.19 50.29 8.23 66.59 2.07C83.27 -4.24 90.97 7.19 91.73 7.15C98.92 6.81 106.03 1.22 105.84 1.91C103.5 10.17 95.59 13.78 96.56 13.92C101.24 14.62 108.89 10.62 108.73 10.88C104.92 16.97 97.62 22.43 97.62 22.43C97.62 22.43 100.29 57.22 70.69 77.45C36.01 101.16 -1.12 78.27 0.86 78.37C23.84 79.43 32.36 69.86 33.12 68.94C33.42 68.57 19.58 70.31 12.73 53.59C12.38 52.74 14.56 55.42 22.32 53.29C23.35 53 5.76 50.69 4.97 31.25C4.95 30.8 9.84 34.14 14.56 33.83" />
	</g>
</svg>