<svg version="1.2" baseProfile="tiny-ps" xmlns="http://www.w3.org/2000/svg" viewBox="0 0 72 72" width="72" height="72">
	<title>Username</title>
	<style>
		tspan { white-space:pre }
		.shp0 { paint-order:stroke fill markers;stroke-width: 4 } 
	</style>
	<g id="Username">
		<path id="Forma 1" class="shp0" d="M70 61.5L70 65.75C70 68.1 68.1 70 65.75 70L6.25 70C3.9 70 2 68.1 2 65.75L2 61.5C7.05 50.88 14.75 48.76 14.75 48.76L19 48.76C23.69 48.76 27.5 44.95 27.5 40.26L27.5 37.44C25.81 35.42 24.47 33.1 23.67 30.59C23.5 30.08 23.41 29.49 22.94 29.16C21.1 27.65 20.59 24.81 21.74 22.72C21.93 22.3 22.37 21.96 22.31 21.45C22.32 18.91 22.29 16.37 22.32 13.83C22.42 11.47 23.01 9.08 24.36 7.1C25.88 4.83 28.33 3.3 30.95 2.64C33.97 1.88 37.15 1.85 40.2 2.43C42.61 2.89 44.95 3.96 46.65 5.75C48.76 7.98 49.62 11.11 49.68 14.11C49.7 16.6 49.69 19.1 49.69 21.59C49.67 21.96 49.97 22.21 50.14 22.51C51.36 24.46 51.04 27.21 49.41 28.84C49.11 29.16 48.65 29.39 48.57 29.86C47.73 32.65 46.38 35.3 44.5 37.53L44.5 40.26C44.5 44.95 48.31 48.76 53 48.76L57.25 48.76C57.25 48.76 64.95 50.88 70 61.5Z" />
	</g>
</svg>